<svg id="Calque_1" data-name="Calque 1" xmlns="http://www.w3.org/2000/svg" viewBox="0 0 291.04 10.39"><title>menu-1-droite</title><path d="M465.56,224.09a47.89,47.89,0,0,1-6.55,1c-31.8.17-63.6.75-95.4.29-59.92-.87-119.82-2.33-179.74-3.58a25.85,25.85,0,0,1-6.43-.77c-1.13-.32-2-1.64-2.94-2.51,1-.86,2-2.32,3.13-2.49a73.21,73.21,0,0,1,11.42-.86c14.81.17,29.61.66,44.42.79,40.62.37,81.25.55,121.87.95,31.63.31,63.26.7,94.89,1.4,4.58.1,9.12,2.09,13.66,3.31C464.36,221.75,464.61,222.63,465.56,224.09Z" transform="translate(-174.53 -215.18)"/></svg>