<svg id="Calque_1" data-name="Calque 1" xmlns="http://www.w3.org/2000/svg" viewBox="0 0 387.95 13.83"><title>menu-4-droite</title><path d="M125.2,280.9l19.3-3-.06-1-18.78,1.18c7-2.9,14.3-3.09,21.65-3.06,17.33.08,34.66.13,52,0,19.31-.18,38.61-.88,57.92-.85,10.46,0,20.91,1.22,31.38,1.66,7.65.32,15.32.35,23,.35,14.16,0,28.33.06,42.48-.26,7.12-.16,14.22-1.27,21.35-1.65,6.48-.34,13-.45,19.48-.35,12.48.18,25,.83,37.44.81,10.14,0,20.28-.85,30.42-1.12,6.46-.17,12.93.07,19.4.07,7.48,0,15-.07,22.45-.13a14.24,14.24,0,0,0,1.47-.29c2.33-.27,4.86-.8,6.28,1.71s.8,5.23-.57,7.62c-1.2,2.09-2.8,3.6-5.62,3.34-2.45-.22-4.94.15-7.41.06-5.81-.2-11.62-.75-17.43-.72-11.81.06-23.62.49-35.43.61-5.48.06-11-.25-16.45-.42-1.5,0-3-.24-4.48-.3-8.48-.32-17-1-25.44-.84-11.63.18-23.26,1-34.89,1.47-3.16.14-6.33.16-9.49.24-10.81.29-21.62.83-32.43.8-11.81,0-23.71.23-35.42-1.05-32.71-3.59-65.51-2.32-98.28-2.78-8.46-.12-16.89-1.49-25.35-1.67-11.3-.24-22.62.13-33.93.26-1.46,0-2.91.18-4.37.27Z" transform="translate(-125.2 -272.96)"/></svg>