<svg id="Calque_1" data-name="Calque 1" xmlns="http://www.w3.org/2000/svg" viewBox="0 0 309.54 16.09"><title>menu-2-droite</title><path d="M164.58,279.51c3.92-.48,7.83-1,11.76-1.41a147.32,147.32,0,0,0,28.3-5.57c4.25-1.27,9.21-.22,13.84-.16,1,0,2,.39,3,.43,9,.42,17.94.85,26.91,1.19,11,.42,21.94.76,32.91,1.12,10,.33,19.94.71,29.91,1,14.3.38,28.6.69,42.91,1,14.47.34,28.94.74,43.41,1,23.63.39,47.26.67,70.89,1.05a41.93,41.93,0,0,1,5.74.87l-.08,1c-6.41,0-12.82,0-19.23,0-13,0-26,0-39,.2-18,.24-35.93.61-53.9,1-13.14.28-26.27.64-39.41,1q-17.45.47-34.91,1-12.46.41-24.91,1-20.17.94-40.33,2c-1.65.09-3.28.59-4.93.66-6.13.25-12.09.29-18.2-1.71-6.72-2.19-13.94-2.93-21-4.07-4.53-.73-9.13-1-13.69-1.55Z" transform="translate(-164.56 -271.9)"/></svg>