<svg id="Calque_1" data-name="Calque 1" xmlns="http://www.w3.org/2000/svg" viewBox="0 0 387.85 13.65"><title>menu-4-gauche</title><path d="M513.56,276.22c-6.48,3.12-13.11-1.61-19.59.23l-.1,1.14,19.64,2.32-.05.87a64.14,64.14,0,0,1-7.57,0c-13.15-1.57-26.19-.63-39.29.88a257.93,257.93,0,0,1-46.34.66c-8.27-.54-16.62.2-24.93.37-4.66.1-9.32.13-14,.33-7.64.32-15.28.73-22.91,1.14-5,.27-9.95.75-14.92.86-15.31.36-30.62.93-45.92.76-14.8-.17-29.58-1.41-44.37-1.74-12.32-.27-24.65,0-37,.21-9.31.13-18.62.6-27.93.65-5.15,0-10.3-.76-15.44-.7-13,.15-26,.3-38.91,1-6.16.33-8.7-3.32-8.19-9,.27-3,1.49-4.05,4.57-3.85a62.8,62.8,0,0,1,7.94.76c7.35,1.46,14.58.1,21.86-.61a47.38,47.38,0,0,1,8.46-.24A423.14,423.14,0,0,0,214,273.81c14.64-.36,29.29-.84,43.93-.68,9.78.11,19.55,1.48,29.34,1.9,11.47.5,23,1.07,34.43.75,19.11-.52,38.2-1.9,57.31-2.55,12-.41,24-.26,36-.14,25.47.25,50.94.52,76.4,1.07C498.76,274.33,506.15,275.51,513.56,276.22Z" transform="translate(-125.71 -272.14)"/></svg>