<svg id="Calque_1" data-name="Calque 1" xmlns="http://www.w3.org/2000/svg" viewBox="0 0 287.68 9.21"><title>menu-1-gauche</title><path d="M176.46,242.89c-.58-5.47,1.36-8.07,7.2-8.31,9-.35,18-.19,27,0,29.63.49,59.27,1.45,88.9,1.53,33.3.09,66.6-.85,99.89-.79,20,0,39.94,1.08,59.91,1.85,1.6.06,3.15,1.57,4.73,2.41-1.54.82-3,2.22-4.63,2.37-33.42,3.17-66.86,1-100.3.36-23.48-.43-47-.23-70.47-.08-35.95.22-71.89.63-107.84.95C179.35,243.15,177.88,243,176.46,242.89Z" transform="translate(-176.36 -234.37)"/></svg>