<svg id="Calque_1" data-name="Calque 1" xmlns="http://www.w3.org/2000/svg" viewBox="0 0 310.74 15.96"><title>menu-2-gauche</title><path d="M164.12,219.91a54.45,54.45,0,0,1,6.31-.77c16.5-.16,33-.14,49.49-.34,19.31-.24,38.62-.61,57.93-1,13.31-.27,26.62-.63,39.93-1q17.21-.46,34.43-1,12.22-.4,24.43-1,20.43-1,40.85-2c1.65-.09,3.28-.57,4.94-.67a44.14,44.14,0,0,1,16.2,1.65c6.93,2.15,14.28,3,21.49,4.14,4.72.76,9.52,1.06,14.73,1.62-1.27,1.91-2.9,1.32-4.19,1.44-10.43,1-21,1.71-30.94,5-7.39,2.45-14.6,2.25-22.09,1.35-6.26-.75-12.6-.89-18.92-1.14-12.8-.49-25.61-.89-38.42-1.28q-18.46-.56-36.93-1-20.21-.53-40.43-1-25.21-.55-50.43-1-33.46-.56-66.93-1a14,14,0,0,1-1.46-.17Z" transform="translate(-164.11 -212)"/></svg>